<svg width="32" height="24" viewBox="0 0 32 24" fill="none" xmlns="http://www.w3.org/2000/svg">
<path d="M19.3733 9.46996L12.6267 14.53C11.732 13.859 11.2294 12.9489 11.2294 12C11.2294 11.5301 11.3528 11.0648 11.5925 10.6307C11.8323 10.1966 12.1837 9.8022 12.6267 9.46996C13.0696 9.13771 13.5956 8.87416 14.1743 8.69435C14.7531 8.51454 15.3735 8.422 16 8.422C17.2652 8.422 18.4787 8.79896 19.3733 9.46996V9.46996Z" stroke="#B3B3B3" stroke-width="1.5" stroke-linecap="round" stroke-linejoin="round"/>
<path d="M23.76 5.76998C21.4267 4.44998 18.76 3.72998 16 3.72998C11.2934 3.72998 6.9067 5.80998 3.85337 9.40998C2.65337 10.82 2.65337 13.19 3.85337 14.6C4.9067 15.84 6.13337 16.91 7.4667 17.77M11.2267 19.53C12.7467 20.01 14.36 20.27 16 20.27C20.7067 20.27 25.0934 18.19 28.1467 14.59C29.3467 13.18 29.3467 10.81 28.1467 9.39998C27.7067 8.87998 27.2267 8.38998 26.7334 7.92998" stroke="#B3B3B3" stroke-width="1.5" stroke-linecap="round" stroke-linejoin="round"/>
<path d="M20.68 12.7C20.4993 13.3976 20.0449 14.0387 19.3749 14.5412C18.7049 15.0437 17.8501 15.3845 16.92 15.52M12.6266 14.53L2.66663 22M29.3333 2L19.3733 9.47" stroke="#B3B3B3" stroke-width="1.5" stroke-linecap="round" stroke-linejoin="round"/>
</svg>
