<svg width="22" height="30" viewBox="0 0 22 30" fill="none" xmlns="http://www.w3.org/2000/svg">
<path d="M19.5284 15.4675L17.8001 13.7392C17.5929 13.5563 17.4266 13.3319 17.3119 13.0805C17.1971 12.8291 17.1366 12.5564 17.1342 12.28C17.1059 11.6425 17.3609 11.005 17.8284 10.5375L19.5284 8.83754C21.0017 7.36421 21.5542 5.94754 21.0867 4.82837C20.6334 3.72337 19.2309 3.11421 17.1626 3.11421H2.3584V1.89587C2.3584 1.31504 1.87673 0.833374 1.2959 0.833374C0.715065 0.833374 0.233398 1.31504 0.233398 1.89587V28.1042C0.233398 28.685 0.715065 29.1667 1.2959 29.1667C1.87673 29.1667 2.3584 28.685 2.3584 28.1042V21.1909H17.1626C19.2026 21.1909 20.5767 20.5675 21.0442 19.4484C21.5117 18.3292 20.9734 16.9267 19.5284 15.4675Z" fill="#B3B3B3"/>
</svg>
