<svg width="48" height="48" viewBox="0 0 48 48" fill="none" xmlns="http://www.w3.org/2000/svg">
<path d="M35.7358 43.744C35.1158 43.744 34.4958 43.584 33.9358 43.244L25.9158 38.4841C25.0758 38.4641 24.2358 38.404 23.4358 38.284C23.1685 38.2451 22.9164 38.1356 22.7055 37.9669C22.4946 37.7981 22.3324 37.5763 22.2358 37.3241C22.0358 36.8041 22.1358 36.244 22.4958 35.8241C23.8158 34.284 24.4958 32.444 24.4958 30.484C24.4958 25.644 20.2358 21.704 14.9958 21.704C13.0358 21.704 11.1558 22.244 9.57576 23.284C9.36077 23.4216 9.11455 23.5026 8.85991 23.5196C8.60527 23.5366 8.35046 23.489 8.1191 23.3813C7.88773 23.2736 7.6873 23.1093 7.53638 22.9035C7.38546 22.6977 7.28894 22.4571 7.25576 22.204C7.19197 21.6396 7.15859 21.0721 7.15576 20.504C7.15576 10.584 15.7558 2.52405 26.3158 2.52405C36.8758 2.52405 45.4758 10.584 45.4758 20.504C45.4758 25.944 42.9558 30.944 38.5158 34.364L39.1958 39.8041C39.2574 40.2957 39.2141 40.7949 39.0686 41.2687C38.9232 41.7424 38.6789 42.1799 38.3519 42.5522C38.0249 42.9246 37.6226 43.2233 37.1717 43.4288C36.7207 43.6342 36.2313 43.7417 35.7358 43.744ZM26.2958 35.4641C26.5758 35.444 26.8558 35.524 27.0958 35.684L35.4758 40.6641C35.6958 40.8041 35.8758 40.7441 35.9958 40.6641C36.0958 40.604 36.2558 40.444 36.2158 40.1641L35.4358 33.844C35.3758 33.284 35.6158 32.744 36.0558 32.424C40.1358 29.564 42.4758 25.204 42.4758 20.464C42.4758 12.204 35.2358 5.48405 26.3158 5.48405C17.7358 5.48405 10.6958 11.724 10.1758 19.564C11.6758 18.984 13.2958 18.664 14.9758 18.664C21.8758 18.664 27.4758 23.944 27.4758 30.444C27.4958 32.204 27.0758 33.9041 26.2958 35.4641Z" fill="#030001"/>
<path d="M9.15611 45.5C8.63611 45.5 8.13611 45.36 7.67611 45.06C7.23813 44.784 6.88732 44.3895 6.66433 43.9222C6.44133 43.455 6.35527 42.9342 6.41611 42.42L6.81611 39.34C4.11611 37.14 2.51611 33.88 2.51611 30.46C2.51611 26.56 4.55611 22.92 7.97611 20.74C10.0737 19.386 12.5195 18.6703 15.0161 18.68C21.9161 18.68 27.5161 23.96 27.5161 30.46C27.5161 33.1 26.5561 35.7 24.7961 37.76C22.5361 40.5 19.1561 42.1 15.4361 42.22L10.5561 45.12C10.1161 45.38 9.63611 45.5 9.15611 45.5ZM14.9961 21.68C13.0361 21.68 11.1561 22.22 9.57611 23.26C7.01611 24.9 5.49611 27.58 5.49611 30.46C5.49611 33.24 6.85611 35.78 9.25611 37.42C9.71611 37.74 9.95611 38.28 9.89611 38.84L9.45611 42.26L14.2361 39.42C14.4761 39.28 14.7361 39.2 14.9961 39.2C17.9361 39.2 20.7161 37.94 22.4761 35.8C23.7961 34.24 24.4961 32.4 24.4961 30.44C24.4961 25.62 20.2361 21.68 14.9961 21.68Z" fill="#030001"/>
</svg>
