<svg width="30" height="30" viewBox="0 0 30 30" fill="none" xmlns="http://www.w3.org/2000/svg">
<path d="M13.6538 19.1792L11.033 21.8C10.4805 22.3525 9.60217 22.3525 9.03551 21.8142C8.87967 21.6584 8.72384 21.5167 8.56801 21.3609C7.13543 19.9187 5.81415 18.3701 4.61551 16.7284C3.45384 15.1134 2.51884 13.4984 1.83884 11.8975C1.17301 10.2825 0.833008 8.73837 0.833008 7.26504C0.833008 6.30171 1.00301 5.38087 1.34301 4.53087C1.68301 3.66671 2.22134 2.87337 2.97217 2.16504C3.87884 1.27254 4.87051 0.833374 5.91884 0.833374C6.31551 0.833374 6.71217 0.918374 7.06634 1.08837C7.43467 1.25837 7.76051 1.51337 8.01551 1.88171L11.3022 6.51421C11.5572 6.86837 11.7413 7.19421 11.8688 7.50587C11.9963 7.80337 12.0672 8.10087 12.0672 8.37004C12.0672 8.71004 11.968 9.05004 11.7697 9.37587C11.5855 9.70171 11.3163 10.0417 10.9763 10.3817L9.89967 11.5009C9.74384 11.6567 9.67301 11.8409 9.67301 12.0675C9.67301 12.1809 9.68717 12.28 9.71551 12.3934C9.75801 12.5067 9.80051 12.5917 9.82884 12.6767C10.0838 13.1442 10.523 13.7534 11.1463 14.49C11.7838 15.2267 12.4638 15.9775 13.2005 16.7284C13.3422 16.87 13.498 17.0117 13.6397 17.1534C14.2063 17.7059 14.2205 18.6125 13.6538 19.1792ZM29.1238 23.9675C29.122 24.5022 29.001 25.0297 28.7697 25.5117C28.5288 26.0217 28.2172 26.5034 27.8063 26.9567C27.1122 27.7217 26.3472 28.2742 25.483 28.6284C25.4688 28.6284 25.4547 28.6425 25.4405 28.6425C24.6047 28.9825 23.698 29.1667 22.7205 29.1667C21.2755 29.1667 19.7313 28.8267 18.1022 28.1325C16.473 27.4384 14.8438 26.5034 13.2288 25.3275C12.6763 24.9167 12.1238 24.5059 11.5997 24.0667L16.2322 19.4342C16.6288 19.7317 16.983 19.9584 17.2805 20.1142C17.3513 20.1425 17.4363 20.185 17.5355 20.2275C17.6488 20.27 17.7622 20.2842 17.8897 20.2842C18.1305 20.2842 18.3147 20.1992 18.4705 20.0434L19.5472 18.9809C19.9013 18.6267 20.2413 18.3575 20.5672 18.1875C20.893 17.9892 21.2188 17.89 21.573 17.89C21.8422 17.89 22.1255 17.9467 22.4372 18.0742C22.7488 18.2017 23.0747 18.3859 23.4288 18.6267L28.118 21.9559C28.4863 22.2109 28.7413 22.5084 28.8972 22.8625C29.0388 23.2167 29.1238 23.5709 29.1238 23.9675Z" fill="#B3B3B3"/>
</svg>
