<svg width="60" height="60" viewBox="0 0 60 60" fill="none" xmlns="http://www.w3.org/2000/svg">
<path d="M30.0001 56.575C28.3251 56.575 26.6251 56.2 25.3001 55.425L11.5501 47.5C5.9501 43.725 5.6001 43.15 5.6001 37.225V22.775C5.6001 16.85 5.9251 16.275 11.4251 12.55L25.2751 4.55C27.9001 3.025 32.0251 3.025 34.6501 4.55L48.4501 12.5C54.0501 16.275 54.4001 16.85 54.4001 22.775V37.2C54.4001 43.125 54.0751 43.7 48.5751 47.425L34.7251 55.425C33.3751 56.2 31.6751 56.575 30.0001 56.575ZM30.0001 7.175C28.9501 7.175 27.9251 7.375 27.2001 7.8L13.4501 15.75C9.3751 18.5 9.3751 18.5 9.3751 22.775V37.2C9.3751 41.475 9.3751 41.475 13.5501 44.3L27.2001 52.175C28.6751 53.025 31.3501 53.025 32.8251 52.175L46.5751 44.225C50.6251 41.475 50.6251 41.475 50.6251 37.2V22.775C50.6251 18.5 50.6251 18.5 46.4501 15.675L32.8001 7.8C32.0751 7.375 31.0501 7.175 30.0001 7.175Z" fill="white"/>
<path d="M30 39.375C24.825 39.375 20.625 35.175 20.625 30C20.625 24.825 24.825 20.625 30 20.625C35.175 20.625 39.375 24.825 39.375 30C39.375 35.175 35.175 39.375 30 39.375ZM30 24.375C26.9 24.375 24.375 26.9 24.375 30C24.375 33.1 26.9 35.625 30 35.625C33.1 35.625 35.625 33.1 35.625 30C35.625 26.9 33.1 24.375 30 24.375Z" fill="white"/>
</svg>
